<svg width="24" height="24" xmlns="http://www.w3.org/2000/svg">
   <symbol viewBox="0 0 40 40" id="logo">
      <path d="M20 26C23.3 26 26 23.3 26 20C26 16.7 23.3 14 20 14C16.7 14 14 16.7 14 20C14 23.3 16.7 26 20 26ZM20 0C18 0 15.9 0.3 14 0.9V12C18.4 8.7 24.7 9.6 28 14C31.3 18.4 30.4 24.7 26 28C21.6 31.3 15.3 30.4 12 26C10.7 24.3 9.99999 22.2 9.99999 20V2.7C0.399989 8.2 -2.80001 20.4 2.69999 30C8.19999 39.6 20.4 42.8 30 37.3C39.6 31.8 42.8 19.6 37.3 10C33.8 3.8 27.2 0 20 0Z"/>
   </symbol>
   <symbol viewBox="0 0 14 15" id="phone">
      <path d="M13.7455 13.0923C13.4909 13.5935 12.9818 13.8441 12.4727 14.0947C11.8364 14.4706 11.3273 14.5959 10.6909 14.5959C9.8 14.5959 8.90909 14.22 8.14545 13.9694C7.50909 13.7188 7 13.4682 6.36364 13.2176C4.58182 12.09 2.54545 10.0853 1.52727 8.45643C1.14545 7.82996 0.890909 7.32878 0.636364 6.70231C0.381818 5.82525 0 5.07349 0 4.07113C0 3.44466 0.127273 2.81819 0.509091 2.19172C0.763636 1.69054 1.01818 1.18936 1.52727 0.938771C1.90909 0.938771 2.54545 0.813477 2.92727 0.813477C3.05455 0.813477 3.05455 0.813477 3.18182 0.813477C3.43636 0.938771 3.56364 1.31465 3.69091 1.56524C3.94545 2.19172 4.32727 2.69289 4.58182 3.31936C4.83636 3.56995 5.09091 3.82054 5.09091 4.07113C5.09091 4.6976 3.30909 5.57466 3.30909 6.07584C3.30909 6.32643 3.56364 6.70231 3.69091 6.9529C4.70909 8.70702 5.98182 9.95997 7.76364 10.9623C8.01818 11.0876 8.4 11.3382 8.65455 11.3382C9.16364 11.3382 10.0545 9.58408 10.6909 9.58408C10.9455 9.58408 11.2 9.83467 11.4545 10.0853C11.9636 10.4611 12.6 10.7117 13.1091 11.0876C13.3636 11.2129 13.7455 11.3382 13.8727 11.5888C13.8727 11.7141 13.8727 11.7141 13.8727 11.8394C14 12.09 13.8727 12.7164 13.7455 13.0923Z"/>
   </symbol>
   <symbol viewBox="0 0 41 41" id="listening">
      <path d="M12.5923 0.788452C6.0838 0.788452 0.788452 6.52513 0.788452 13.6081C0.813499 15.2504 1.26379 16.8582 2.0954 18.2746C2.48837 18.9449 2.82485 19.6468 3.10135 20.373C3.28473 20.9068 3.10872 21.498 2.6633 21.8446C1.88835 22.4641 1.43928 23.404 1.44422 24.3962C1.44111 25.4864 1.9801 26.5069 2.88233 27.1189C3.20669 27.3393 3.40398 27.7033 3.41153 28.0954V33.577C3.41153 37.1929 6.05888 40.1347 9.31347 40.1347C12.5681 40.1347 15.2154 37.1929 15.2154 33.577C15.2054 30.8762 16.3799 28.3068 18.4287 26.5471C22.2694 23.3425 24.4615 18.5777 24.3962 13.576C24.3962 6.52513 19.1008 0.788452 12.5923 0.788452ZM17.5762 25.551C15.2357 27.5594 13.8934 30.4929 13.9039 33.577C13.9039 36.4696 11.8441 38.8231 9.31347 38.8231C6.78285 38.8231 4.72307 36.4696 4.72307 33.577V28.0954C4.71245 27.2832 4.31391 26.5251 3.65089 26.0559C3.09063 25.69 2.75372 25.0654 2.75576 24.3962C2.75126 23.793 3.02755 23.222 3.50334 22.8512C4.37644 22.1517 4.70981 20.9754 4.33355 19.9219C4.03153 19.1275 3.66367 18.3598 3.23382 17.6267C2.51115 16.3975 2.12043 15.0017 2.09999 13.576C2.09999 7.24845 6.80711 2.09999 12.5923 2.09999C18.3775 2.09999 23.0846 7.24845 23.0846 13.576C23.1447 18.1933 21.1213 22.592 17.5762 25.551Z"/>
      <path d="M12.5923 4.06729C8.9377 4.06729 5.82148 6.6589 4.61158 10.2814C4.60306 10.303 4.59715 10.324 4.5906 10.3469C4.24485 11.3989 4.06778 12.4989 4.06598 13.6061C4.06598 14.3931 4.06598 16.7997 5.56966 18.3034C5.82697 18.5519 6.23598 18.5484 6.48893 18.2954C6.74189 18.0425 6.74544 17.6335 6.49692 17.3762C5.95817 16.7773 5.61221 16.03 5.50408 15.2318C5.60966 15.2252 5.71393 15.2167 5.82344 15.2167C8.83343 15.2154 11.2808 17.9696 11.2808 21.3534C11.2808 21.6675 11.2657 21.9626 11.2414 22.2538C10.9149 22.6024 10.5676 22.9309 10.2014 23.2374C8.29139 24.8016 7.2328 27.1762 7.34614 29.6423C7.34614 30.0045 7.63974 30.2981 8.00191 30.2981C8.36409 30.2981 8.65768 30.0045 8.65768 29.6423C8.54487 27.563 9.43359 25.5552 11.0486 24.2408C13.3623 22.465 14.6711 19.6774 14.5596 16.763C14.5596 12.6579 11.4709 9.31345 7.67403 9.31345C7.23785 9.3146 6.80296 9.36075 6.37626 9.45117C7.51611 7.0315 9.91876 5.45745 12.5923 5.37883C16.5696 5.37883 19.8058 9.06885 19.8058 13.6048C19.8573 17.1782 18.3076 20.5872 15.5813 22.8977C15.4908 22.9758 15.3905 23.0597 15.2816 23.1509C13.9766 24.2355 11.2624 26.4953 10.6289 32.1933C10.5906 32.5523 10.8498 32.8748 11.2086 32.9146C11.2325 32.9181 11.2566 32.9203 11.2808 32.9212C11.6148 32.9209 11.8952 32.6695 11.9319 32.3376C12.5071 27.1635 14.8567 25.2087 16.1197 24.1588C16.2358 24.0617 16.3427 23.9725 16.4384 23.8899C19.4567 21.3331 21.1731 17.5601 21.1173 13.6048C21.1173 8.34554 17.2929 4.06729 12.5923 4.06729ZM7.67403 10.625C10.7476 10.625 13.2481 13.3792 13.2481 16.763C13.2778 18.0038 13.0314 19.2358 12.5267 20.3697C12.0867 16.7237 9.25247 13.9038 5.82476 13.9038C5.67327 13.9038 5.52769 13.915 5.38145 13.9255C5.38145 13.7996 5.38145 13.6901 5.38145 13.6048C5.38169 12.7278 5.50712 11.8554 5.75393 11.0139C6.36201 10.7587 7.0146 10.6266 7.67403 10.625Z"/>
      <path d="M33.577 15.8712C33.6273 13.8043 34.5038 11.8439 36.0105 10.4283C36.1936 10.2657 36.2708 10.0148 36.2109 9.77745C36.151 9.54012 35.9639 9.35591 35.7257 9.29971C35.4874 9.2435 35.2377 9.32466 35.078 9.51019C33.3267 11.1684 32.3135 13.4598 32.2654 15.8712C32.3135 18.2825 33.3267 20.5739 35.078 22.2321C35.2377 22.4177 35.4874 22.4988 35.7257 22.4426C35.9639 22.3864 36.151 22.2022 36.2109 21.9649C36.2708 21.7275 36.1936 21.4766 36.0105 21.3141C34.5038 19.8984 33.6273 17.938 33.577 15.8712Z"/>
      <path d="M37.9477 12.1025C37.8178 11.9868 37.6472 11.9275 37.4736 11.9375C37.2999 11.9476 37.1374 12.0263 37.0217 12.1562C35.0519 14.2412 35.0519 17.5012 37.0217 19.5861C37.1775 19.7611 37.4149 19.8397 37.6443 19.7923C37.8738 19.7449 38.0605 19.5786 38.1342 19.3562C38.2078 19.1338 38.1572 18.8889 38.0014 18.7139C36.474 17.1265 36.474 14.6158 38.0014 13.0284C38.1171 12.8985 38.1764 12.7279 38.1664 12.5543C38.1563 12.3806 38.0776 12.2181 37.9477 12.1025Z"/>
      <path d="M39.9661 14.1209C39.7238 13.8519 39.3093 13.8302 39.0402 14.0724C38.489 14.5066 38.1674 15.1695 38.1674 15.8712C38.1674 16.5728 38.489 17.2358 39.0402 17.67C39.2134 17.8322 39.4608 17.8883 39.687 17.8164C39.9133 17.7445 40.083 17.556 40.1308 17.3235C40.1786 17.091 40.0971 16.8508 39.9176 16.6955C39.6633 16.4935 39.5045 16.1949 39.4789 15.8712C39.5045 15.5475 39.6633 15.2489 39.9176 15.0469C40.1866 14.8046 40.2083 14.3901 39.9661 14.1209Z"/>
      <path d="M30.2981 15.8712C30.2981 12.9858 31.5906 10.1974 34.036 7.81567C34.2037 7.65167 34.2713 7.41064 34.2131 7.18337C34.1549 6.95609 33.98 6.77711 33.7541 6.71383C33.5282 6.65056 33.2857 6.71261 33.1179 6.87661C30.4161 9.51018 28.9866 12.6205 28.9866 15.8712C28.9866 19.1218 30.4161 22.2321 33.1179 24.8657C33.3772 25.1192 33.793 25.1145 34.0465 24.8552C34.3 24.5959 34.2953 24.1802 34.036 23.9267C31.5906 21.5449 30.2981 18.7566 30.2981 15.8712Z"/>
      <path d="M27.0193 15.8712C27.0193 12.2684 28.542 8.79802 31.4241 5.83787C31.5881 5.66989 31.65 5.42718 31.5866 5.20116C31.5231 4.97514 31.3439 4.80016 31.1164 4.74212C30.8889 4.68409 30.6477 4.75181 30.4837 4.9198C27.3596 8.13307 25.7077 11.9201 25.7077 15.8712C25.7077 19.8222 27.3596 23.6092 30.4837 26.8225C30.7373 27.0822 31.1533 27.0872 31.413 26.8337C31.6727 26.5801 31.6776 26.1641 31.4241 25.9044C28.542 22.9443 27.0193 19.474 27.0193 15.8712Z"/>
   </symbol>
   <symbol viewBox="0 0 41 41" id="charging">
      <g clip-path="url(#clip0_34196_180)">
         <path d="M26.031 3.73074H12.969C11.527 3.73074 10.3539 4.90383 10.3539 6.34588V35.8079C10.3539 37.2499 11.527 38.423 12.969 38.423H26.031C27.4731 38.423 28.6462 37.2499 28.6462 35.8079V6.34597C28.6462 4.90383 27.4731 3.73074 26.031 3.73074ZM27.3846 35.8079C27.3846 36.5542 26.7772 37.1616 26.031 37.1616H12.969C12.2228 37.1616 11.6154 36.5542 11.6154 35.8079V6.34597C11.6154 5.59977 12.2228 4.99234 12.969 4.99234H26.031C26.7773 4.99234 27.3847 5.59977 27.3847 6.34597V35.8079H27.3846Z"/>
         <path d="M22.9693 0.576935H16.0308C15.6825 0.576935 15.4 0.859395 15.4 1.20773V4.36155C15.4 4.70989 15.6825 4.99235 16.0308 4.99235H22.9693C23.3176 4.99235 23.6001 4.70989 23.6001 4.36155V1.20773C23.6 0.859395 23.3176 0.576935 22.9693 0.576935ZM22.3385 3.73075H16.6615V1.83844H22.3385V3.73075Z"/>
         <path d="M24.1319 17.8996C24.0161 17.7175 23.8155 17.6075 23.6 17.6075H19.8154V11.9306C19.8154 11.6349 19.6099 11.379 19.3213 11.315C19.0301 11.2512 18.738 11.396 18.613 11.6639L14.1976 21.1255C14.1065 21.3207 14.1215 21.5494 14.2373 21.731C14.3531 21.9132 14.5537 22.0231 14.7692 22.0231H18.5538V27.7C18.5538 27.9957 18.7593 28.2516 19.0479 28.3157C19.0938 28.3259 19.1396 28.3308 19.1849 28.3308C19.4257 28.3308 19.6509 28.1922 19.7562 27.9667L24.1716 18.5052C24.2627 18.3099 24.2477 18.0812 24.1319 17.8996ZM18.5538 20.7615H15.7597L18.5538 14.7738V20.7615ZM19.8154 24.857V18.8692H22.6095L19.8154 24.857Z"/>
      </g>
      <defs>
         <clipPath id="clip0_34196_180">
            <rect width="37.8462" height="37.8462" transform="translate(0.57692 0.576935)"/>
         </clipPath>
      </defs>
   </symbol>
   <symbol viewBox="0 0 41 41" id="plug">
      <g clip-path="url(#clip0_34196_192)">
         <path d="M29.5923 8.77691H27.7V2.46924C27.7 1.39691 26.88 0.576935 25.8077 0.576935C24.7353 0.576935 23.9154 1.39691 23.9154 2.46924V8.77691H15.0846V2.46924C15.0846 1.39691 14.2647 0.576935 13.1923 0.576935C12.12 0.576935 11.3 1.39691 11.3 2.46924V8.77691H9.40772C9.02925 8.77691 8.77697 9.02919 8.77697 9.40765V14.2015C8.77697 17.3553 9.97541 20.383 12.1201 22.7169C14.0124 24.8615 15.0847 27.6369 15.0847 30.4753V32.1153C15.0847 33.8815 16.4724 35.2692 18.2386 35.2692H18.8693V37.7923C18.8693 38.1707 19.1216 38.423 19.5001 38.423C19.8785 38.423 20.1308 38.1707 20.1308 37.7923V35.2692H20.7616C22.5277 35.2692 23.9154 33.8815 23.9154 32.1153V30.5384C23.9154 27.6369 24.9246 24.9246 26.8801 22.78C29.0247 20.4462 30.2232 17.3553 30.2232 14.2016V9.40773C30.2231 9.02927 29.9707 8.77691 29.5923 8.77691ZM25.1769 2.46924C25.1769 2.09078 25.4292 1.8385 25.8077 1.8385C26.1861 1.8385 26.4384 2.09078 26.4384 2.46924V8.77691H25.1769V2.46924ZM12.5615 2.46924C12.5615 2.15383 12.8138 1.8385 13.1923 1.8385C13.5707 1.8385 13.823 2.09078 13.823 2.46924V8.77691H12.5614V2.46924H12.5615ZM28.9615 14.1385C28.9615 17.04 27.9523 19.7524 25.9969 21.897C23.8523 24.2308 22.6539 27.3215 22.6539 30.4754V32.1154C22.6539 33.1878 21.8339 34.0077 20.7616 34.0077H18.2385C17.1662 34.0077 16.3462 33.1878 16.3462 32.1154V30.5385C16.3462 27.3847 15.1478 24.2939 13.0031 21.9601C11.1108 19.8154 10.0385 17.04 10.0385 14.2016V10.0385H11.9308H14.4538H24.5461H27.0692H28.9615V14.1385Z"/>
         <path d="M22.0231 16.977H18.4907L21.8338 13.6339C22.0861 13.3816 22.0861 13.0031 21.8338 12.7508C21.5815 12.4984 21.2031 12.4985 20.9507 12.7508L16.5354 17.1661C16.3461 17.3554 16.2831 17.6076 16.4092 17.86C16.4722 18.1123 16.7246 18.2385 16.9769 18.2385H20.5092L17.1661 21.5816C16.9138 21.8338 16.9138 22.2123 17.1661 22.4647C17.2923 22.5908 17.4184 22.6539 17.6076 22.6539C17.7968 22.6539 17.923 22.5908 18.0491 22.4647L22.4645 18.0493C22.6537 17.8601 22.7168 17.6078 22.5907 17.3554C22.5277 17.1031 22.2754 16.977 22.0231 16.977Z"/>
      </g>
      <defs>
         <clipPath id="clip0_34196_192">
            <rect width="37.8462" height="37.8462" transform="translate(0.57692 0.576935)"/>
         </clipPath>
      </defs>
   </symbol>
   <symbol viewBox="0 0 68 68" id="charging_big">
      <path d="M46.536 8H40V4H28V8H21.464C19.554 8 18 9.554 18 11.464V60.536C18 62.446 19.554 64 21.464 64H46.536C48.446 64 50 62.446 50 60.536V11.464C50 9.554 48.446 8 46.536 8ZM20 23H48V35H20V23ZM20 37H48V49H20V37ZM30 6H38V8H30V6ZM21.464 10H28H40H46.536C47.344 10 48 10.656 48 11.464V21H20V11.464C20 10.656 20.656 10 21.464 10ZM46.536 62H21.464C20.656 62 20 61.344 20 60.536V51H48V60.536C48 61.344 47.344 62 46.536 62Z"/>
   </symbol>
   <symbol viewBox="0 0 68 68" id="listening_big">
      <g clip-path="url(#clip0_2_963)">
         <path d="M36.404 11.413C35.428 10.861 34.273 10.879 33.314 11.457C33.268 11.484 33.224 11.516 33.184 11.55L19.634 23.013H9C8.447 23.013 8 23.46 8 24.013V43.013C8 43.279 8.105 43.533 8.293 43.72C8.481 43.907 8.734 44.013 9 44.013L19.61 44.008L33.153 56.448C33.203 56.494 33.257 56.534 33.314 56.568C33.806 56.865 34.351 57.014 34.896 57.014C35.413 57.013 35.929 56.88 36.404 56.612C37.403 56.048 38 55.018 38 53.857V14.169C38 13.008 37.403 11.978 36.404 11.413ZM36 53.857C36 54.288 35.783 54.667 35.421 54.872C35.266 54.959 34.873 55.127 34.421 54.898L21 42.569V38.013C21 37.46 20.553 37.013 20 37.013C19.447 37.013 19 37.46 19 38.013V42.009L10 42.013V25.013H19V29.013C19 29.566 19.447 30.013 20 30.013C20.553 30.013 21 29.566 21 29.013V24.477L34.405 13.137C34.866 12.895 35.265 13.067 35.421 13.155C35.783 13.36 36 13.739 36 14.169V53.857Z"/>
         <path d="M46.797 15.066C46.274 14.889 45.706 15.169 45.528 15.692C45.351 16.214 45.631 16.783 46.154 16.961C53.255 19.372 58.026 26.024 58.026 33.514C58.026 40.997 53.264 47.65 46.177 50.068C45.655 50.246 45.375 50.814 45.554 51.338C45.696 51.753 46.084 52.015 46.5 52.015C46.607 52.015 46.716 51.998 46.823 51.961C54.719 49.268 60.025 41.855 60.025 33.515C60.026 25.166 54.71 17.753 46.797 15.066Z"/>
         <path d="M51.026 33.513C51.026 27.541 47.017 22.211 41.277 20.551C40.744 20.4 40.193 20.703 40.039 21.235C39.886 21.765 40.191 22.32 40.723 22.473C45.612 23.886 49.027 28.426 49.027 33.513C49.027 38.6 45.612 43.14 40.723 44.553C40.192 44.706 39.886 45.261 40.039 45.791C40.166 46.229 40.565 46.514 41 46.514C41.092 46.514 41.185 46.501 41.277 46.475C47.018 44.815 51.026 39.485 51.026 33.513Z"/>
      </g>
      <defs>
         <clipPath id="clip0_2_963">
            <rect width="52.026" height="52.026" transform="translate(8 8)"/>
         </clipPath>
      </defs>
   </symbol>
   <symbol viewBox="0 0 68 68" id="plug_big">
      <path d="M35.634 41.989C36.675 41.908 37.624 41.377 38.24 40.53L47.603 27.586C47.89 27.189 47.847 26.641 47.499 26.293C47.151 25.946 46.603 25.903 46.206 26.189L33.26 35.555C32.416 36.169 31.885 37.118 31.804 38.159C31.723 39.2 32.1 40.219 32.837 40.956C33.508 41.628 34.413 42 35.354 42C35.447 42 35.54 41.996 35.634 41.989ZM33.798 38.315C33.833 37.858 34.067 37.441 34.435 37.173L42.332 31.46L36.621 39.355C36.351 39.726 35.934 39.959 35.477 39.995C35.022 40.025 34.575 39.867 34.25 39.542C33.928 39.219 33.762 38.771 33.798 38.315Z"/>
   	<path d="M58.034 23.564C58.024 23.543 58.024 23.521 58.013 23.5C58.001 23.48 57.982 23.469 57.969 23.45C56.958 21.716 55.762 20.103 54.404 18.641L56.552 16.494L57.966 17.908L62.208 13.665L57.966 9.423L53.723 13.665L55.138 15.08L52.99 17.227C51.528 15.869 49.916 14.672 48.181 13.661C48.162 13.648 48.151 13.629 48.131 13.617C48.11 13.605 48.088 13.606 48.067 13.595C44.974 11.813 41.499 10.626 37.794 10.191V9H39.294C40.673 9 41.794 7.879 41.794 6.5C41.794 5.121 40.672 4 39.293 4H30.293C28.914 4 27.793 5.121 27.793 6.5C27.793 7.879 28.914 9 30.293 9H31.793V10.156C30.713 10.271 29.635 10.447 28.569 10.691C28.031 10.814 27.694 11.351 27.818 11.889C27.941 12.427 28.478 12.765 29.016 12.64C29.936 12.429 30.865 12.27 31.796 12.163L32.869 12.08C33.197 12.055 33.499 12.037 33.793 12.023V14C33.793 14.553 34.24 15 34.793 15C35.346 15 35.793 14.553 35.793 14V12.03C39.554 12.203 43.098 13.213 46.249 14.875L45.263 16.582C44.987 17.061 45.151 17.672 45.629 17.948C45.786 18.039 45.958 18.082 46.128 18.082C46.474 18.082 46.81 17.903 46.995 17.582L47.978 15.879C51.107 17.864 53.765 20.522 55.75 23.651L54.047 24.634C53.57 24.91 53.406 25.521 53.683 26C53.869 26.321 54.204 26.5 54.55 26.5C54.72 26.5 54.892 26.457 55.049 26.366L56.756 25.38C58.441 28.576 59.454 32.178 59.605 35.999H57.63C57.077 35.999 56.63 36.446 56.63 36.999C56.63 37.552 57.077 37.999 57.63 37.999H59.605C59.454 41.82 58.441 45.422 56.756 48.618L55.049 47.632C54.571 47.356 53.959 47.518 53.683 47.998C53.407 48.477 53.571 49.088 54.049 49.364L55.752 50.347C53.767 53.476 51.109 56.134 47.98 58.119L46.997 56.416C46.72 55.936 46.107 55.773 45.631 56.05C45.152 56.326 44.988 56.938 45.265 57.416L46.251 59.123C43.1 60.785 39.556 61.795 35.795 61.968V60C35.795 59.447 35.348 59 34.795 59C34.242 59 33.795 59.447 33.795 60V61.976C32.198 61.921 30.596 61.721 29.019 61.359C28.481 61.23 27.944 61.572 27.821 62.11C27.697 62.648 28.034 63.185 28.572 63.308C30.568 63.768 32.607 64 34.63 64C34.679 64 34.726 63.997 34.775 63.996C34.782 63.996 34.787 64 34.793 64C34.801 64 34.808 63.995 34.816 63.995C39.623 63.962 44.133 62.664 48.035 60.422C48.066 60.408 48.099 60.401 48.129 60.383C48.149 60.371 48.16 60.352 48.179 60.339C52.218 57.985 55.593 54.614 57.952 50.578C57.971 50.551 57.995 50.53 58.012 50.5C58.024 50.479 58.023 50.457 58.033 50.436C60.317 46.476 61.63 41.89 61.63 37C61.63 32.11 60.317 27.524 58.034 23.564ZM57.965 12.251L59.379 13.665L57.965 15.08L56.55 13.665L57.965 12.251ZM33.793 10.021V7H30.293C30.018 7 29.793 6.775 29.793 6.5C29.793 6.225 30.018 6 30.293 6H39.293C39.568 6 39.793 6.225 39.793 6.5C39.793 6.775 39.568 7 39.293 7H35.793V10.021C35.445 10.007 35.113 10 34.793 10C34.765 10 34.733 10.002 34.705 10.002C34.68 10.002 34.655 10 34.63 10C34.466 10 34.302 10.011 34.138 10.014C34.022 10.017 33.913 10.016 33.793 10.021Z"/>
      <path d="M25.793 18H20.793C20.24 18 19.793 18.447 19.793 19C19.793 19.553 20.24 20 20.793 20H25.793C26.346 20 26.793 19.553 26.793 19C26.793 18.447 26.346 18 25.793 18Z"/>
      <path d="M25.793 25H15.793C15.24 25 14.793 25.447 14.793 26C14.793 26.553 15.24 27 15.793 27H25.793C26.346 27 26.793 26.553 26.793 26C26.793 25.447 26.346 25 25.793 25Z"/>
      <path d="M25.793 32H10.793C10.24 32 9.793 32.447 9.793 33C9.793 33.553 10.24 34 10.793 34H25.793C26.346 34 26.793 33.553 26.793 33C26.793 32.447 26.346 32 25.793 32Z"/>
      <path d="M25.793 39H6.793C6.24 39 5.793 39.447 5.793 40C5.793 40.553 6.24 41 6.793 41H25.793C26.346 41 26.793 40.553 26.793 40C26.793 39.447 26.346 39 25.793 39Z"/>
      <path d="M25.793 46H12.793C12.24 46 11.793 46.447 11.793 47C11.793 47.553 12.24 48 12.793 48H25.793C26.346 48 26.793 47.553 26.793 47C26.793 46.447 26.346 46 25.793 46Z"/>
      <path d="M25.793 53H18.793C18.24 53 17.793 53.447 17.793 54C17.793 54.553 18.24 55 18.793 55H25.793C26.346 55 26.793 54.553 26.793 54C26.793 53.447 26.346 53 25.793 53Z"/>
   </symbol>
   <symbol viewBox="0 0 24 24" id="vk">
      <path d="M12 0C5.37423 0 0 5.37423 0 12C0 18.6258 5.37423 24 12 24C18.6258 24 24 18.6258 24 12C24 5.37423 18.6258 0 12 0ZM18.0859 13.3006C18.6503 13.8405 19.2393 14.3558 19.7301 14.9693C19.9509 15.2393 20.1718 15.5092 20.319 15.8282C20.5399 16.2699 20.3436 16.7607 19.9509 16.7853H17.4969C16.8589 16.8344 16.3681 16.589 15.9264 16.1472C15.5828 15.8037 15.2638 15.4356 14.9448 15.0675C14.8221 14.9202 14.6748 14.773 14.5031 14.6748C14.1595 14.454 13.865 14.5276 13.6933 14.8712C13.4969 15.2393 13.4479 15.6319 13.4233 16.0245C13.3988 16.6135 13.227 16.7607 12.638 16.7853C11.3865 16.8344 10.2086 16.6626 9.12883 16.0245C8.17178 15.4601 7.41104 14.6994 6.77301 13.816C5.49693 12.0982 4.53988 10.2086 3.65644 8.26994C3.46012 7.82822 3.60736 7.60736 4.09816 7.58282C4.90798 7.55828 5.69325 7.55828 6.50307 7.58282C6.82209 7.58282 7.04294 7.77914 7.16564 8.07362C7.60736 9.12883 8.1227 10.1595 8.78528 11.092C8.95705 11.3374 9.15337 11.5828 9.39877 11.7791C9.69325 11.9755 9.88957 11.9018 10.0368 11.5828C10.1104 11.3865 10.1595 11.1656 10.184 10.9448C10.2577 10.2086 10.2577 9.47239 10.135 8.7362C10.0613 8.2454 9.81595 7.95092 9.34969 7.85276C9.10429 7.80368 9.15337 7.73006 9.25153 7.58282C9.44785 7.36196 9.64417 7.21472 10.0123 7.21472H12.7853C13.227 7.31288 13.3252 7.48466 13.3742 7.92638V11.0184C13.3742 11.1902 13.4479 11.7055 13.7669 11.8037C14.0123 11.8773 14.184 11.681 14.3313 11.5337C14.9939 10.8221 15.4601 9.98773 15.9018 9.12883C16.0982 8.7362 16.2454 8.34356 16.4172 7.95092C16.5399 7.65644 16.7117 7.5092 17.0552 7.5092H19.7301C19.8037 7.5092 19.8773 7.5092 19.9755 7.53374C20.4172 7.60736 20.5399 7.80368 20.4172 8.2454C20.1963 8.93251 19.7791 9.52147 19.362 10.0859C18.9202 10.6994 18.4294 11.2883 17.9877 11.9264C17.546 12.5153 17.5706 12.8098 18.0859 13.3006Z"/>
   </symbol>
   <symbol viewBox="0 0 24 24" id="fc">
      <path d="M13.936 23.845c-.098.014-.202.033-.3.047.098-.018.197-.033.3-.047ZM14.175 23.803c-.047.01-.094.019-.145.023.051-.004.098-.014.145-.023ZM13.364 23.92a4.443 4.443 0 0 0 0 0ZM13.598 23.892c-.056.01-.112.014-.168.019.051-.005.112-.01.168-.019ZM14.503 23.738l-.126.028c.042-.01.084-.02.126-.028ZM15.314 23.536l-.103.028c.033-.01.066-.019.103-.028ZM15.066 23.602l-.113.028a.443.443 0 0 0 .113-.028ZM14.747 23.686l-.117.028a.537.537 0 0 1 .117-.028ZM13.008 23.958l-.188.014.188-.014ZM24 12c0-6.628-5.372-12-12-12S0 5.372 0 12s5.372 12 12 12c.07 0 .14 0 .21-.005v-9.337H9.634v-3.005h2.578V9.441c0-2.564 1.566-3.961 3.853-3.961 1.097 0 2.04.08 2.311.117v2.681H16.8c-1.242 0-1.486.59-1.486 1.458v1.912h2.977l-.39 3.005h-2.587v8.883C20.33 22.096 24 17.48 24 12ZM12.792 23.972ZM12.412 23.99c-.065 0-.13.005-.196.005.06 0 .126 0 .197-.004Z"/>
   </symbol>
   <symbol viewBox="0 0 24 24" id="in">
      <g clip-path="url(#a)"><g clip-path="url(#b)"><path d="M14.297 12A2.295 2.295 0 0 1 12 14.297 2.295 2.295 0 0 1 9.703 12 2.295 2.295 0 0 1 12 9.703 2.295 2.295 0 0 1 14.297 12Z"/><path d="M17.372 7.936a2.13 2.13 0 0 0-.516-.792 2.13 2.13 0 0 0-.792-.516c-.244-.094-.61-.206-1.28-.239-.726-.033-.947-.042-2.784-.042-1.842 0-2.058.005-2.784.042-.67.033-1.036.145-1.28.24-.3.112-.572.285-.792.515-.23.22-.403.492-.516.792-.094.244-.206.61-.239 1.28-.033.726-.042.942-.042 2.784 0 1.838.01 2.058.042 2.784.033.67.14 1.036.24 1.28.112.3.285.572.515.792.22.23.492.403.792.516.244.094.61.206 1.28.239.726.033.942.042 2.784.042 1.842 0 2.058-.005 2.784-.042.67-.033 1.036-.14 1.28-.24.6-.229 1.078-.707 1.308-1.307.094-.244.206-.61.239-1.28.033-.726.042-.947.042-2.784 0-1.842-.005-2.058-.042-2.784-.033-.67-.145-1.036-.24-1.28ZM12 15.539a3.539 3.539 0 1 1 0-7.078 3.539 3.539 0 0 1 0 7.078Zm3.68-6.389a.826.826 0 0 1 0-1.65.826.826 0 0 1 0 1.65Z"/><path d="M12 0C5.372 0 0 5.372 0 12s5.372 12 12 12 12-5.372 12-12S18.628 0 12 0Zm6.848 14.84c-.032.732-.15 1.233-.318 1.674a3.514 3.514 0 0 1-2.016 2.016c-.436.168-.937.286-1.673.318-.736.033-.97.043-2.841.043-1.87 0-2.105-.01-2.84-.043-.732-.032-1.233-.15-1.674-.318a3.355 3.355 0 0 1-1.219-.797 3.355 3.355 0 0 1-.797-1.219c-.168-.436-.286-.937-.318-1.673-.033-.736-.043-.97-.043-2.841 0-1.87.01-2.105.043-2.84.032-.732.15-1.233.318-1.674.174-.46.446-.877.797-1.219.342-.351.76-.623 1.219-.797.44-.168.937-.286 1.673-.318.736-.033.97-.043 2.841-.043 1.87 0 2.105.01 2.84.043.732.032 1.233.15 1.674.318.46.174.877.446 1.219.797.351.342.623.76.797 1.219.168.44.286.937.318 1.673.033.736.043.97.043 2.841 0 1.87-.01 2.105-.043 2.84Z"/></g></g><defs><clipPath id="a"><path d="M0 0h24v24H0z"/></clipPath><clipPath id="b"><path d="M0 0h24v24H0z"/></clipPath></defs>
   </symbol>
   <symbol viewBox="0 0 24 24" id="tg">
      <path d="M12 24C18.6281 24 24 18.6281 24 12C24 5.37188 18.6281 0 12 0C5.37188 0 0 5.37188 0 12C0 18.6281 5.37188 24 12 24ZM5.48906 11.7422L17.0625 7.27969C17.6016 7.0875 18.0703 7.41094 17.8922 8.22187L15.9234 17.5031C15.7781 18.1594 15.3844 18.3234 14.8406 18.0094L11.8406 15.7969L10.3922 17.1891C10.2328 17.3484 10.0969 17.4844 9.7875 17.4844L9.99844 14.4328L15.5625 9.4125C15.8062 9.20156 15.5063 9.07969 15.1875 9.29062L8.31562 13.6172L5.35312 12.6937C4.71094 12.4875 4.69688 12.0516 5.48906 11.7422Z"/>
   </symbol>
	<symbol viewBox="0 0 42 42" id="gear">
		<g clip-path="url(#clip0_24_1166)">
			<path d="M21 10.1111C14.9956 10.1111 10.1111 14.9955 10.1111 21C10.1111 27.0044 14.9956 31.8889 21 31.8889C27.0044 31.8889 31.8889 27.0044 31.8889 21C31.8889 14.9955 27.0044 10.1111 21 10.1111ZM21 30.3333C15.8534 30.3333 11.6667 26.1465 11.6667 21C11.6667 15.8534 15.8534 11.6666 21 11.6666C26.1466 11.6666 30.3333 15.8534 30.3333 21C30.3333 26.1465 26.1466 30.3333 21 30.3333Z"/>
			<path d="M39.8378 16.3333H38.2682C37.8677 14.8462 37.2789 13.4229 36.5104 12.089L37.6196 10.9799C38.0279 10.5716 38.2527 10.0279 38.2527 9.45078C38.2527 8.87289 38.0279 8.33 37.6196 7.92089L34.0783 4.37967C33.2617 3.56378 31.8376 3.56222 31.0193 4.37967L29.9102 5.48878C28.5756 4.72111 27.153 4.13233 25.6667 3.73178V2.16222C25.6667 0.969889 24.6968 0 23.5044 0H18.4956C17.3032 0 16.3333 0.969889 16.3333 2.16222V3.73178C14.847 4.13233 13.4244 4.72111 12.089 5.48956L10.9799 4.38044C10.1624 3.56222 8.73755 3.56378 7.92089 4.38044L4.37967 7.92167C3.97133 8.33 3.74656 8.87367 3.74656 9.45156C3.74656 10.0287 3.97133 10.5716 4.37967 10.9807L5.48878 12.0898C4.72111 13.4229 4.13156 14.8462 3.73178 16.3333H2.16222C0.969889 16.3333 0 17.3032 0 18.4956V23.5037C0 24.6968 0.969889 25.6667 2.16222 25.6667H3.73178C4.13233 27.153 4.72111 28.5756 5.48956 29.911L4.38044 31.0201C3.97211 31.4284 3.74733 31.9721 3.74733 32.5492C3.74733 33.1271 3.97211 33.67 4.38044 34.0791L7.92167 37.6203C8.73833 38.4378 10.1632 38.4386 10.9807 37.6203L12.0898 36.5112C13.4252 37.2789 14.8478 37.8684 16.3341 38.269V39.8386C16.3341 41.0309 17.304 42.0008 18.4963 42.0008H23.5044C24.6968 42.0008 25.6667 41.0309 25.6667 39.8386V38.269C27.153 37.8684 28.5756 37.2797 29.911 36.5112L31.0201 37.6203C31.8383 38.4386 33.2617 38.437 34.0791 37.6203L37.6203 34.0791C38.0287 33.6708 38.2534 33.1271 38.2534 32.5492C38.2534 31.9721 38.0287 31.4292 37.6203 31.0201L36.5112 29.911C37.2789 28.5756 37.8684 27.153 38.269 25.6667H39.8386C41.0309 25.6667 42.0008 24.6968 42.0008 23.5044V18.4956C42 17.3032 41.0301 16.3333 39.8378 16.3333ZM40.4444 23.5044C40.4444 23.8389 40.1722 24.1111 39.8378 24.1111H37.044L36.904 24.7123C36.4988 26.4522 35.8159 28.1034 34.8717 29.6209L34.545 30.1451L36.5198 32.1199C36.757 32.3571 36.757 32.7421 36.5198 32.9786L32.9786 36.5198C32.7421 36.7562 32.3571 36.7578 32.1199 36.5198L30.1451 34.545L29.6209 34.8717C28.1042 35.8159 26.453 36.4996 24.7123 36.904L24.1111 37.044V39.8378C24.1111 40.1722 23.8389 40.4444 23.5044 40.4444H18.4956C18.1611 40.4444 17.8889 40.1722 17.8889 39.8378V37.044L17.2877 36.904C15.5478 36.4988 13.8966 35.8159 12.3791 34.8717L11.8549 34.545L9.88011 36.5198C9.64211 36.7578 9.25711 36.7562 9.02144 36.5198L5.48022 32.9786C5.243 32.7413 5.243 32.3563 5.48022 32.1199L7.455 30.1451L7.12833 29.6209C6.18411 28.1042 5.50044 26.453 5.096 24.7123L4.956 24.1111H2.16222C1.82778 24.1111 1.55556 23.8389 1.55556 23.5044V18.4956C1.55556 18.1611 1.82778 17.8889 2.16222 17.8889H4.956L5.096 17.2877C5.50122 15.547 6.18411 13.8958 7.12833 12.3791L7.455 11.8549L5.48022 9.88011C5.243 9.64289 5.243 9.25789 5.48022 9.02144L9.02144 5.48022C9.25789 5.24378 9.64289 5.24222 9.88011 5.48022L11.8549 7.455L12.3791 7.12833C13.8958 6.18411 15.547 5.50044 17.2877 5.096L17.8889 4.956V2.16222C17.8889 1.82778 18.1611 1.55556 18.4956 1.55556H23.5037C23.8389 1.55556 24.1111 1.82778 24.1111 2.16222V4.956L24.7123 5.096C26.4522 5.50122 28.1034 6.18411 29.6209 7.12833L30.1451 7.455L32.1199 5.48022C32.3579 5.24222 32.7429 5.24378 32.9786 5.48022L36.5198 9.02144C36.757 9.25867 36.757 9.64367 36.5198 9.88011L34.545 11.8549L34.8717 12.3791C35.8159 13.895 36.4996 15.5462 36.904 17.2877L37.044 17.8889H39.8378C40.1722 17.8889 40.4444 18.1611 40.4444 18.4956V23.5044Z"/>
			<path d="M21 13.2222C16.7113 13.2222 13.2222 16.7113 13.2222 20.9999C13.2222 25.2886 16.7113 28.7777 21 28.7777C25.2887 28.7777 28.7778 25.2886 28.7778 20.9999C28.7778 16.7113 25.2887 13.2222 21 13.2222ZM21 27.2222C17.5692 27.2222 14.7778 24.4307 14.7778 20.9999C14.7778 17.5692 17.5692 14.7777 21 14.7777C24.4308 14.7777 27.2222 17.5692 27.2222 20.9999C27.2222 24.4307 24.4308 27.2222 21 27.2222Z"/>
		</g>
		<defs>
			<clipPath id="clip0_24_1166">
				<rect width="42" height="42"/>
			</clipPath>
		</defs>
	</symbol>
	<symbol viewBox="0 0 24 24" id="bluetooth">
		<g clip-path="url(#clip0_35297_234)">
			<path d="M18.2054 17.5212L13.1636 12L18.2054 6.47941C18.3637 6.30555 18.4445 6.0739 18.4276 5.83901C18.4107 5.60388 18.2984 5.38591 18.1163 5.23643L11.9874 0.195911C11.7305 -0.0154485 11.3753 -0.0598392 11.0746 0.0825203C10.7739 0.22427 10.5823 0.526708 10.5823 0.859239V9.1736L7.06391 5.32043C6.74426 4.97018 6.20042 4.94552 5.85017 5.26544C5.49992 5.58537 5.47526 6.12865 5.79518 6.47918L10.5823 11.7217V12.2784L5.79523 17.5212C5.47503 17.8711 5.49968 18.4147 5.85022 18.7349C6.20075 19.0551 6.74408 19.0304 7.06395 18.6796L10.5821 14.827V23.1408C10.5821 23.473 10.774 23.7757 11.0744 23.9178C11.1913 23.9728 11.3167 24 11.4413 24C11.6369 24 11.8305 23.9336 11.9874 23.8047L18.1163 18.7641C18.2984 18.6143 18.4107 18.3964 18.4276 18.1615C18.4445 17.9267 18.3643 17.695 18.2054 17.5212ZM12.3007 2.67837L16.326 5.98854L12.3007 10.3968V2.67837ZM12.3007 21.3216V13.6035L16.326 18.0115L12.3007 21.3216Z"/>
		</g>
		<defs>
			<clipPath id="clip0_35297_234">
			<rect width="24" height="24"/>
			</clipPath>
		</defs>
	</symbol>
	<symbol viewBox="0 0 24 24" id="road">
		<g clip-path="url(#clip0_35297_205)">
			<path d="M5.25 4.5C2.355 4.5 0 6.855 0 9.75C0 12.444 4.212 17.2155 4.692 17.751C4.8345 17.9085 5.037 18 5.25 18C5.463 18 5.6655 17.9085 5.808 17.751C6.288 17.2155 10.5 12.444 10.5 9.75C10.5 6.855 8.145 4.5 5.25 4.5ZM5.25 16.1055C3.612 14.163 1.5 11.181 1.5 9.75C1.5 7.683 3.183 6 5.25 6C7.317 6 9 7.683 9 9.75C9 11.1795 6.888 14.163 5.25 16.1055Z"/>
			<path d="M5.25 7.5C4.0095 7.5 3 8.5095 3 9.75C3 10.9905 4.0095 12 5.25 12C6.4905 12 7.5 10.9905 7.5 9.75C7.5 8.5095 6.4905 7.5 5.25 7.5ZM5.25 10.5C4.836 10.5 4.5 10.164 4.5 9.75C4.5 9.336 4.836 9 5.25 9C5.664 9 6 9.336 6 9.75C6 10.164 5.664 10.5 5.25 10.5Z"/>
			<path d="M23.25 0H17.25C16.836 0 16.5 0.336 16.5 0.75V5.25V8.25C16.5 8.664 16.836 9 17.25 9C17.664 9 18 8.664 18 8.25V6H23.25C23.664 6 24 5.664 24 5.25V0.75C24 0.336 23.664 0 23.25 0ZM22.5 4.5H18V1.5H22.5V4.5Z"/>
			<path d="M21 16.5H13.5C12.6735 16.5 12 15.8265 12 15C12 14.1735 12.6735 13.5 13.5 13.5H15.138C15.4485 14.3715 16.2735 15 17.25 15C18.4905 15 19.5 13.9905 19.5 12.75C19.5 11.5095 18.4905 10.5 17.25 10.5C16.2735 10.5 15.4485 11.1285 15.138 12H13.5C11.8455 12 10.5 13.3455 10.5 15C10.5 16.6545 11.8455 18 13.5 18H21C21.8265 18 22.5 18.6735 22.5 19.5C22.5 20.3265 21.8265 21 21 21H7.362C7.0515 20.1285 6.2265 19.5 5.25 19.5C4.0095 19.5 3 20.5095 3 21.75C3 22.9905 4.0095 24 5.25 24C6.2265 24 7.0515 23.3715 7.362 22.5H21C22.6545 22.5 24 21.1545 24 19.5C24 17.8455 22.6545 16.5 21 16.5ZM17.25 12C17.664 12 18 12.336 18 12.75C18 13.164 17.664 13.5 17.25 13.5C16.836 13.5 16.5 13.164 16.5 12.75C16.5 12.336 16.836 12 17.25 12ZM5.25 22.5C4.836 22.5 4.5 22.164 4.5 21.75C4.5 21.336 4.836 21 5.25 21C5.664 21 6 21.336 6 21.75C6 22.164 5.664 22.5 5.25 22.5Z"/>
		</g>
		<defs>
			<clipPath id="clip0_35297_205">
				<rect width="24" height="24"/>
			</clipPath>
		</defs>
	</symbol>
	<symbol viewBox="0 0 24 24" id="charger">
		<g clip-path="url(#clip0_35297_228)">
			<path d="M22.08 7.22744V5.12612C22.08 4.73628 21.7639 4.42024 21.3741 4.42024H18.096C17.7061 4.42024 17.3901 4.73628 17.3901 5.12612V7.22744C17.0301 7.25962 16.7478 7.56174 16.7478 7.93012V11.7258C16.7478 12.5907 17.4515 13.2943 18.3164 13.2943H19.0292V20.8141C19.0292 21.7924 18.2331 22.5882 17.2546 22.5882H9.53833C8.56007 22.5882 7.76421 21.7924 7.76421 20.8141V19.2941H9.26539C9.65523 19.2941 9.97127 18.9781 9.97127 18.5882V16.298H10.7211C11.8887 16.298 12.8387 15.348 12.8387 14.1804V7.77821C12.8387 6.82607 12.2069 6.01887 11.3407 5.75327V3.33271C11.3407 2.94287 11.0246 2.62682 10.6348 2.62682H9.64704V0.705882C9.64704 0.316047 9.33099 0 8.94115 0C8.55132 0 8.23527 0.316047 8.23527 0.705882V2.62682H5.88139V0.705882C5.88139 0.316047 5.56534 0 5.17551 0C4.78567 0 4.46963 0.316047 4.46963 0.705882V2.62682H3.48186C3.09202 2.62682 2.77598 2.94287 2.77598 3.33271V5.75327C1.90967 6.01887 1.27795 6.82602 1.27795 7.77821V14.1804C1.27795 15.348 2.22793 16.298 3.3956 16.298H4.14539V18.5882C4.14539 18.9781 4.46144 19.2941 4.85127 19.2941H6.35245V20.8141C6.35245 22.5708 7.78163 24 9.53833 24H17.2546C19.0115 24 20.4409 22.5708 20.4409 20.8141V13.2943H21.1535C22.0184 13.2943 22.722 12.5907 22.722 11.7258V7.93012C22.722 7.56179 22.4398 7.25976 22.08 7.22744V7.22744ZM9.92892 4.03859V5.66056H4.18774V4.03859H9.92892ZM2.68967 14.1804V7.77821C2.68967 7.38899 3.00633 7.07233 3.39555 7.07233H10.7211C11.1103 7.07233 11.4269 7.38899 11.4269 7.77821V14.1804C11.4269 14.5696 11.1103 14.8863 10.7211 14.8863C10.4252 14.8863 3.73245 14.8863 3.39555 14.8863C3.00633 14.8863 2.68967 14.5696 2.68967 14.1804ZM5.55715 16.298H8.55951V17.8824H5.55715V16.298ZM20.6682 5.832V7.22424H18.8019V5.832H20.6682ZM21.3103 11.7258C21.3103 11.8122 21.2399 11.8825 21.1535 11.8825C21.0671 11.8825 19.1153 11.8825 18.3164 11.8825C18.2299 11.8825 18.1596 11.8122 18.1596 11.7258V8.636H21.3103V11.7258Z"/>
			<path d="M6.16377 11.6851H6.87986L6.56777 12.4089C6.41341 12.7669 6.5785 13.1823 6.93643 13.3366C7.29497 13.4911 7.70994 13.3255 7.8641 12.9679L8.60109 11.2588C8.80203 10.7928 8.45925 10.2734 7.9529 10.2734H7.2368L7.5489 9.54964C7.70325 9.19166 7.53817 8.77628 7.18024 8.62192C6.82217 8.46762 6.40687 8.6327 6.25257 8.99063L5.51558 10.6998C5.31464 11.1657 5.65741 11.6851 6.16377 11.6851V11.6851Z"/>
		</g>
		<defs>
			<clipPath id="clip0_35297_228">
				<rect width="24" height="24"/>
			</clipPath>
		</defs>
	</symbol>
	<symbol viewBox="0 0 24 24" id="weight">
		<g clip-path="url(#clip0_35297_241)">
			<path d="M20.3373 6.39972H14.9742C15.5392 5.7226 15.88 4.85193 15.88 3.90308C15.88 1.75085 14.1292 0 11.9771 0C9.82489 0 8.07404 1.75085 8.07404 3.90308C8.07404 4.85193 8.41479 5.7226 8.97986 6.39972H3.6167L0.28125 24H23.6728L20.3373 6.39972ZM11.9771 1.40625C13.3537 1.40625 14.4738 2.52631 14.4738 3.90308C14.4738 5.27966 13.3537 6.39972 11.9771 6.39972C10.6003 6.39972 9.48029 5.27966 9.48029 3.90308C9.48029 2.52631 10.6003 1.40625 11.9771 1.40625ZM4.78143 7.80597H19.1726L21.975 22.5938H1.979L4.78143 7.80597Z"/>
			<path d="M12.0055 12.4026H10.4094L8.17786 14.631V12.4026H7.03088V18.0225H8.17786V16.1017L8.75629 15.5377L10.5044 18.0225H11.985L9.57532 14.7496L12.0055 12.4026Z"/>
			<path d="M14.2747 16.0007H15.7903V16.617C15.6685 16.7058 15.5026 16.793 15.2955 16.8766C15.0436 16.9786 14.7817 17.0303 14.5177 17.0303C14.2154 17.0303 13.9261 16.9627 13.6575 16.8294C13.3986 16.701 13.2063 16.5092 13.0701 16.2426C12.9294 15.9677 12.8582 15.6152 12.8582 15.195C12.8582 14.8546 12.9186 14.5355 13.0371 14.2474C13.1041 14.0872 13.1995 13.938 13.3207 13.8034C13.4363 13.6752 13.5936 13.569 13.7878 13.4879C13.9858 13.4053 14.2277 13.3634 14.5071 13.3634C14.7347 13.3634 14.9432 13.4028 15.1269 13.4804C15.3016 13.5542 15.4356 13.6511 15.5251 13.7681C15.6222 13.8948 15.7062 14.0775 15.7751 14.3113L15.8395 14.5302L16.8955 14.2405L16.8386 14.0191C16.7417 13.6419 16.5959 13.329 16.4052 13.0886C16.2094 12.8419 15.939 12.6482 15.601 12.5127C15.2736 12.3814 14.9044 12.3149 14.5036 12.3149C13.9539 12.3149 13.4592 12.4307 13.0331 12.6588C12.5969 12.8925 12.2585 13.2534 12.028 13.7314C11.8037 14.1962 11.6902 14.7026 11.6902 15.2373C11.6902 15.7786 11.8052 16.277 12.0324 16.7184C12.2648 17.1703 12.6132 17.5203 13.0684 17.7587C13.5139 17.9921 14.0145 18.1106 14.5563 18.1106C14.9579 18.1106 15.3547 18.0375 15.7357 17.8932C16.1131 17.7506 16.4832 17.5356 16.8356 17.2546L16.9233 17.1848V14.9271L14.2747 14.9313V16.0007Z"/>
		</g>
		<defs>
			<clipPath id="clip0_35297_241">
				<rect width="24" height="24"/>
			</clipPath>
		</defs>
	</symbol>
	<symbol viewBox="0 0 24 24" id="patent">
		<path d="M24 1.78125H0V19.2266H14.7643V22.2543L17.3884 20.9725L20.0125 22.2543V19.2266H24V1.78125ZM17.3884 16.413C16.0701 16.413 14.9978 15.3406 14.9978 14.0224C14.9978 12.7042 16.0701 11.6318 17.3884 11.6318C18.7066 11.6318 19.7791 12.7042 19.7791 14.0224C19.7791 15.3406 18.7066 16.413 17.3884 16.413ZM17.3884 19.4075L16.1706 20.0023V17.6177C16.5531 17.7477 16.9623 17.8193 17.3884 17.8193C17.8143 17.8193 18.2236 17.7477 18.6063 17.6177V20.0023L17.3884 19.4075ZM22.5938 17.8204H20.0125V16.7626C20.7343 16.071 21.1853 15.0987 21.1853 14.0224C21.1853 11.9288 19.4821 10.2255 17.3884 10.2255C15.2948 10.2255 13.5916 11.9288 13.5916 14.0224C13.5916 15.0987 14.0424 16.0712 14.7643 16.7626V17.8204H1.40625V3.1875H22.5938V17.8204Z"/>
		<path d="M2.81415 7.41064H21.1859V8.81689H2.81415V7.41064Z"/>
		<path d="M4.92517 4.59595H19.0748V6.0022H4.92517V4.59595Z"/>
		<path d="M2.81415 15.0056H9.65442V16.4119H2.81415V15.0056Z"/>
		<path d="M2.81415 12.1908H9.65442V13.597H2.81415V12.1908Z"/>
	</symbol>
	<svg viewBox="0 0 20 20" id="close">
		<path d="M13.5556 10L19.3333 4.22222C20.2222 3.33333 20.2222 2 19.3333 1.22222L18.8889 0.777778C18 -0.111111 16.6667 -0.111111 15.8889 0.777778L10 6.44444L4.22222 0.666667C3.33333 -0.222222 2 -0.222222 1.11111 0.666667L0.666667 1.11111C-0.222222 2 -0.222222 3.33333 0.666667 4.11111L6.44444 10L0.666667 15.7778C-0.222222 16.6667 -0.222222 18 0.666667 18.7778L1.11111 19.3333C2 20.2222 3.33333 20.2222 4.11111 19.3333L10 13.5556L15.7778 19.3333C16.6667 20.2222 18 20.2222 18.7778 19.3333L19.2222 18.8889C20.1111 18 20.1111 16.6667 19.2222 15.8889L13.5556 10Z"/>
	</svg>
</svg>